        <svg
          width="264"
          height="76"
          viewBox="0 0 264 76"
          fill="none"
          xmlns="http://www.w3.org/2000/svg"
        >
          <rect width="264" height="76" fill="#226CF5" />
          <path
            d="M61.6805 34.16C62.5012 34.16 63.214 34.2453 63.8188 34.416C64.4379 34.5867 64.9131 34.8284 65.2443 35.1413C65.5899 35.44 65.7627 35.8027 65.7627 36.2293C65.7627 36.5138 65.6763 36.784 65.5035 37.04C65.3307 37.2818 65.0787 37.4027 64.7475 37.4027C64.5171 37.4027 64.3227 37.3742 64.1644 37.3173C64.0204 37.2462 63.8908 37.1609 63.7756 37.0613C63.6604 36.9618 63.5236 36.8693 63.3652 36.784C63.2212 36.6987 62.998 36.6347 62.6956 36.592C62.4076 36.5351 62.1917 36.5067 62.0477 36.5067C61.3133 36.5067 60.6869 36.6631 60.1686 36.976C59.6646 37.2889 59.2758 37.7156 59.0022 38.256C58.7286 38.7822 58.5919 39.3938 58.5919 40.0907C58.5919 40.7733 58.7286 41.3849 59.0022 41.9253C59.2902 42.4516 59.679 42.8711 60.1686 43.184C60.6725 43.4969 61.2485 43.6533 61.8965 43.6533C62.2565 43.6533 62.566 43.632 62.8252 43.5893C63.0844 43.5467 63.3004 43.4827 63.4732 43.3973C63.6748 43.2836 63.8548 43.1627 64.0132 43.0347C64.1715 42.9067 64.4091 42.8427 64.7259 42.8427C65.1003 42.8427 65.3883 42.9636 65.5899 43.2053C65.7915 43.4329 65.8923 43.7173 65.8923 44.0587C65.8923 44.4142 65.6907 44.7413 65.2875 45.04C64.8843 45.3244 64.3515 45.5591 63.6892 45.744C63.0412 45.9147 62.3357 46 61.5725 46C60.435 46 59.4486 45.744 58.6135 45.232C57.7783 44.7058 57.1303 43.9947 56.6696 43.0987C56.2232 42.2027 56 41.2 56 40.0907C56 38.9244 56.2376 37.9004 56.7128 37.0187C57.2023 36.1227 57.8719 35.4258 58.7215 34.928C59.5854 34.416 60.5717 34.16 61.6805 34.16Z"
            fill="white"
          />
          <path
            d="M78.971 40.0907C78.971 41.2569 78.7046 42.288 78.1719 43.184C77.6535 44.0658 76.9479 44.7556 76.0552 45.2533C75.1768 45.7511 74.1905 46 73.0961 46C72.0018 46 71.0082 45.7511 70.1155 45.2533C69.2371 44.7556 68.5316 44.0658 67.9988 43.184C67.4804 42.288 67.2213 41.2569 67.2213 40.0907C67.2213 38.9244 67.4804 37.9004 67.9988 37.0187C68.5316 36.1227 69.2371 35.4258 70.1155 34.928C71.0082 34.416 72.0018 34.16 73.0961 34.16C74.1905 34.16 75.1768 34.416 76.0552 34.928C76.9479 35.4258 77.6535 36.1227 78.1719 37.0187C78.7046 37.9004 78.971 38.9244 78.971 40.0907ZM76.3792 40.0907C76.3792 39.3653 76.228 38.7396 75.9256 38.2133C75.6376 37.6729 75.2416 37.2533 74.7376 36.9547C74.2481 36.656 73.7009 36.5067 73.0961 36.5067C72.4914 36.5067 71.937 36.656 71.433 36.9547C70.9435 37.2533 70.5475 37.6729 70.2451 38.2133C69.9571 38.7396 69.8131 39.3653 69.8131 40.0907C69.8131 40.8018 69.9571 41.4276 70.2451 41.968C70.5475 42.4942 70.9435 42.9067 71.433 43.2053C71.937 43.504 72.4914 43.6533 73.0961 43.6533C73.7009 43.6533 74.2481 43.504 74.7376 43.2053C75.2416 42.9067 75.6376 42.4942 75.9256 41.968C76.228 41.4276 76.3792 40.8018 76.3792 40.0907Z"
            fill="white"
          />
          <path
            d="M89.8141 34.3733C90.1885 34.3733 90.4981 34.5013 90.7429 34.7573C90.9877 34.9991 91.1101 35.3049 91.1101 35.6747V41.0933C91.1101 42.6009 90.6853 43.7956 89.8357 44.6773C88.9862 45.5591 87.7622 46 86.1639 46C84.5656 46 83.3417 45.5591 82.4921 44.6773C81.657 43.7956 81.2394 42.6009 81.2394 41.0933V35.6747C81.2394 35.3049 81.3618 34.9991 81.6066 34.7573C81.8514 34.5013 82.1609 34.3733 82.5353 34.3733C82.9097 34.3733 83.2193 34.5013 83.4641 34.7573C83.7089 34.9991 83.8312 35.3049 83.8312 35.6747V41.0933C83.8312 41.9609 84.0256 42.608 84.4144 43.0347C84.8032 43.4471 85.3864 43.6533 86.1639 43.6533C86.9559 43.6533 87.5462 43.4471 87.935 43.0347C88.3238 42.608 88.5182 41.9609 88.5182 41.0933V35.6747C88.5182 35.3049 88.6406 34.9991 88.8854 34.7573C89.1302 34.5013 89.4397 34.3733 89.8141 34.3733Z"
            fill="white"
          />
          <path
            d="M95.212 45.7867C94.8376 45.7867 94.528 45.6658 94.2832 45.424C94.0384 45.168 93.916 44.8551 93.916 44.4853V35.6747C93.916 35.3049 94.0384 34.9991 94.2832 34.7573C94.528 34.5013 94.8376 34.3733 95.212 34.3733C95.5863 34.3733 95.8959 34.5013 96.1407 34.7573C96.3855 34.9991 96.5079 35.3049 96.5079 35.6747V37.68L96.3567 36.2507C96.5151 35.9093 96.7167 35.6107 96.9615 35.3547C97.2206 35.0844 97.5086 34.864 97.8254 34.6933C98.1422 34.5084 98.4806 34.3733 98.8406 34.288C99.2005 34.2027 99.5605 34.16 99.9205 34.16C100.352 34.16 100.712 34.2809 101 34.5227C101.303 34.7644 101.454 35.0489 101.454 35.376C101.454 35.8453 101.332 36.1867 101.087 36.4C100.842 36.5991 100.576 36.6987 100.288 36.6987C100.014 36.6987 99.7621 36.6489 99.5317 36.5493C99.3157 36.4498 99.0638 36.4 98.7758 36.4C98.5166 36.4 98.2502 36.464 97.9766 36.592C97.7174 36.7058 97.4726 36.8907 97.2423 37.1467C97.0263 37.4027 96.8463 37.7227 96.7023 38.1067C96.5727 38.4764 96.5079 38.9173 96.5079 39.4293V44.4853C96.5079 44.8551 96.3855 45.168 96.1407 45.424C95.8959 45.6658 95.5863 45.7867 95.212 45.7867Z"
            fill="white"
          />
          <path
            d="M102.612 44.016C102.468 43.8169 102.403 43.5609 102.417 43.248C102.432 42.9351 102.619 42.6649 102.979 42.4373C103.209 42.2951 103.454 42.2382 103.713 42.2667C103.972 42.2809 104.224 42.4089 104.469 42.6507C104.887 43.0631 105.326 43.3831 105.787 43.6107C106.247 43.8382 106.823 43.952 107.515 43.952C107.731 43.9378 107.968 43.9093 108.227 43.8667C108.486 43.8098 108.71 43.696 108.897 43.5253C109.098 43.3404 109.199 43.0631 109.199 42.6933C109.199 42.3804 109.091 42.1316 108.875 41.9467C108.659 41.7618 108.371 41.6053 108.011 41.4773C107.666 41.3493 107.277 41.2284 106.845 41.1147C106.399 40.9867 105.938 40.8444 105.463 40.688C105.002 40.5316 104.577 40.3324 104.188 40.0907C103.8 39.8347 103.483 39.5004 103.238 39.088C102.993 38.6756 102.871 38.1564 102.871 37.5307C102.871 36.8196 103.072 36.2151 103.476 35.7173C103.879 35.2196 104.397 34.8356 105.031 34.5653C105.679 34.2951 106.355 34.16 107.061 34.16C107.507 34.16 107.975 34.2169 108.465 34.3307C108.954 34.4302 109.422 34.6009 109.869 34.8427C110.315 35.0702 110.69 35.376 110.992 35.76C111.15 35.9733 111.244 36.2293 111.273 36.528C111.302 36.8267 111.165 37.0969 110.862 37.3387C110.646 37.5093 110.394 37.5876 110.106 37.5733C109.818 37.5449 109.581 37.4453 109.394 37.2747C109.149 36.9618 108.818 36.7129 108.4 36.528C107.997 36.3431 107.529 36.2507 106.996 36.2507C106.78 36.2507 106.543 36.2791 106.283 36.336C106.039 36.3787 105.823 36.4853 105.635 36.656C105.448 36.8124 105.355 37.0684 105.355 37.424C105.355 37.7511 105.463 38.0142 105.679 38.2133C105.895 38.3982 106.183 38.5547 106.543 38.6827C106.917 38.7964 107.313 38.9102 107.73 39.024C108.162 39.1378 108.602 39.2729 109.048 39.4293C109.494 39.5858 109.905 39.792 110.279 40.048C110.654 40.304 110.956 40.6382 111.186 41.0507C111.417 41.4489 111.532 41.9609 111.532 42.5867C111.532 43.312 111.316 43.9307 110.884 44.4427C110.452 44.9547 109.912 45.3458 109.264 45.616C108.616 45.872 107.954 46 107.277 46C106.427 46 105.578 45.8578 104.728 45.5733C103.879 45.2747 103.173 44.7556 102.612 44.016Z"
            fill="white"
          />
          <path
            d="M119.144 46C117.92 46 116.854 45.7511 115.947 45.2533C115.054 44.7413 114.363 44.0516 113.874 43.184C113.399 42.3164 113.161 41.3351 113.161 40.24C113.161 38.96 113.42 37.872 113.938 36.976C114.471 36.0658 115.162 35.3689 116.012 34.8853C116.862 34.4018 117.761 34.16 118.712 34.16C119.446 34.16 120.137 34.3093 120.785 34.608C121.448 34.9067 122.031 35.3191 122.535 35.8453C123.039 36.3573 123.435 36.9547 123.723 37.6373C124.025 38.32 124.176 39.0453 124.176 39.8133C124.162 40.1547 124.025 40.432 123.766 40.6453C123.507 40.8587 123.204 40.9653 122.859 40.9653H120.796H118.733H116.671H114.608L113.96 38.832H115.942H116.933H117.923H118.914H119.905H120.896H121.887L121.412 39.2587V38.6827C121.383 38.2702 121.232 37.9004 120.958 37.5733C120.699 37.2462 120.368 36.9902 119.965 36.8053C119.576 36.6062 119.158 36.5067 118.712 36.5067C118.28 36.5067 117.877 36.5636 117.502 36.6773C117.128 36.7911 116.804 36.9831 116.53 37.2533C116.257 37.5236 116.041 37.8862 115.882 38.3413C115.724 38.7964 115.645 39.3724 115.645 40.0693C115.645 40.8373 115.803 41.4916 116.12 42.032C116.451 42.5582 116.869 42.9636 117.373 43.248C117.891 43.5182 118.438 43.6533 119.014 43.6533C119.547 43.6533 119.972 43.6107 120.289 43.5253C120.605 43.44 120.857 43.3404 121.044 43.2267C121.246 43.0987 121.426 42.992 121.584 42.9067C121.844 42.7787 122.088 42.7147 122.319 42.7147C122.636 42.7147 122.895 42.8213 123.096 43.0347C123.312 43.248 123.42 43.4969 123.42 43.7813C123.42 44.1653 123.219 44.5138 122.816 44.8267C122.441 45.1396 121.916 45.4169 121.239 45.6587C120.562 45.8862 119.864 46 119.144 46Z"
            fill="white"
          />
          <path
            d="M132.38 30C132.697 30 133.007 30.0427 133.309 30.128C133.612 30.2133 133.864 30.3556 134.065 30.5547C134.267 30.7396 134.368 30.9884 134.368 31.3013C134.368 31.6569 134.26 31.9413 134.044 32.1547C133.842 32.3538 133.604 32.4533 133.331 32.4533C133.201 32.4533 133.007 32.4249 132.748 32.368C132.488 32.2969 132.236 32.2613 131.992 32.2613C131.632 32.2613 131.351 32.3396 131.149 32.496C130.962 32.6524 130.833 32.8373 130.761 33.0507C130.689 33.2498 130.653 33.4276 130.653 33.584V44.4853C130.653 44.8551 130.53 45.168 130.285 45.424C130.041 45.6658 129.731 45.7867 129.357 45.7867C128.982 45.7867 128.673 45.6658 128.428 45.424C128.183 45.168 128.061 44.8551 128.061 44.4853V33.6053C128.061 32.5956 128.421 31.7422 129.141 31.0453C129.861 30.3484 130.941 30 132.38 30ZM132.618 34.5867C132.964 34.5867 133.252 34.7004 133.482 34.928C133.712 35.1413 133.828 35.4187 133.828 35.76C133.828 36.1013 133.712 36.3858 133.482 36.6133C133.252 36.8267 132.964 36.9333 132.618 36.9333H126.894C126.549 36.9333 126.261 36.8267 126.03 36.6133C125.8 36.3858 125.685 36.1013 125.685 35.76C125.685 35.4187 125.8 35.1413 126.03 34.928C126.261 34.7004 126.549 34.5867 126.894 34.5867H132.618ZM138.32 44.4853C138.32 44.8551 138.198 45.168 137.953 45.424C137.708 45.6658 137.399 45.7867 137.024 45.7867C136.65 45.7867 136.34 45.6658 136.095 45.424C135.851 45.168 135.728 44.8551 135.728 44.4853V43.384V42.2827V41.1813V40.08V38.9787V37.8773V36.776V35.6747C135.728 35.3049 135.851 34.9991 136.095 34.7573C136.34 34.5013 136.65 34.3733 137.024 34.3733C137.399 34.3733 137.708 34.5013 137.953 34.7573C138.198 34.9991 138.32 35.3049 138.32 35.6747V36.776V37.8773V38.9787V40.08V41.1813V42.2827V43.384V44.4853ZM137.003 32.9867C136.513 32.9867 136.167 32.9084 135.966 32.752C135.764 32.5956 135.663 32.3182 135.663 31.92V31.5147C135.663 31.1022 135.771 30.8249 135.987 30.6827C136.218 30.5262 136.563 30.448 137.024 30.448C137.528 30.448 137.881 30.5262 138.083 30.6827C138.284 30.8391 138.385 31.1164 138.385 31.5147V31.92C138.385 32.3324 138.277 32.6169 138.061 32.7733C137.845 32.9156 137.492 32.9867 137.003 32.9867Z"
            fill="white"
          />
          <path
            d="M147.151 34.16C148.216 34.16 149.023 34.3804 149.57 34.8213C150.131 35.2622 150.513 35.8524 150.715 36.592C150.931 37.3173 151.039 38.128 151.039 39.024V44.4853C151.039 44.8551 150.916 45.168 150.671 45.424C150.427 45.6658 150.117 45.7867 149.743 45.7867C149.368 45.7867 149.059 45.6658 148.814 45.424C148.569 45.168 148.447 44.8551 148.447 44.4853V39.024C148.447 38.5547 148.382 38.1351 148.252 37.7653C148.137 37.3813 147.921 37.0756 147.604 36.848C147.288 36.6204 146.834 36.5067 146.244 36.5067C145.668 36.5067 145.178 36.6204 144.775 36.848C144.386 37.0756 144.084 37.3813 143.868 37.7653C143.666 38.1351 143.565 38.5547 143.565 39.024V44.4853C143.565 44.8551 143.443 45.168 143.198 45.424C142.953 45.6658 142.644 45.7867 142.27 45.7867C141.895 45.7867 141.586 45.6658 141.341 45.424C141.096 45.168 140.974 44.8551 140.974 44.4853V35.6747C140.974 35.3049 141.096 34.9991 141.341 34.7573C141.586 34.5013 141.895 34.3733 142.27 34.3733C142.644 34.3733 142.953 34.5013 143.198 34.7573C143.443 34.9991 143.565 35.3049 143.565 35.6747V36.592L143.241 36.528C143.371 36.2862 143.558 36.0302 143.803 35.76C144.048 35.4756 144.336 35.2124 144.667 34.9707C144.998 34.7289 145.373 34.5369 145.79 34.3947C146.208 34.2382 146.661 34.16 147.151 34.16Z"
            fill="white"
          />
          <path
            d="M163.3 30C163.675 30 163.984 30.1209 164.229 30.3627C164.474 30.6044 164.596 30.9173 164.596 31.3013V44.4853C164.596 44.8551 164.474 45.168 164.229 45.424C163.984 45.6658 163.675 45.7867 163.3 45.7867C162.926 45.7867 162.616 45.6658 162.372 45.424C162.127 45.168 162.004 44.8551 162.004 44.4853V43.44L162.48 43.632C162.48 43.8169 162.379 44.0444 162.177 44.3147C161.976 44.5707 161.702 44.8267 161.356 45.0827C161.011 45.3387 160.601 45.5591 160.125 45.744C159.665 45.9147 159.161 46 158.613 46C157.62 46 156.72 45.7511 155.914 45.2533C155.107 44.7413 154.466 44.0444 153.991 43.1627C153.531 42.2667 153.3 41.2427 153.3 40.0907C153.3 38.9244 153.531 37.9004 153.991 37.0187C154.466 36.1227 155.1 35.4258 155.892 34.928C156.684 34.416 157.562 34.16 158.527 34.16C159.146 34.16 159.715 34.2524 160.233 34.4373C160.752 34.6222 161.198 34.8569 161.572 35.1413C161.961 35.4258 162.256 35.7173 162.458 36.016C162.674 36.3004 162.782 36.5422 162.782 36.7413L162.004 37.0187V31.3013C162.004 30.9316 162.127 30.6258 162.372 30.384C162.616 30.128 162.926 30 163.3 30ZM158.937 43.6533C159.571 43.6533 160.125 43.4969 160.601 43.184C161.076 42.8711 161.443 42.4444 161.702 41.904C161.976 41.3636 162.112 40.7591 162.112 40.0907C162.112 39.408 161.976 38.7964 161.702 38.256C161.443 37.7156 161.076 37.2889 160.601 36.976C160.125 36.6631 159.571 36.5067 158.937 36.5067C158.318 36.5067 157.771 36.6631 157.296 36.976C156.821 37.2889 156.446 37.7156 156.173 38.256C155.914 38.7964 155.784 39.408 155.784 40.0907C155.784 40.7591 155.914 41.3636 156.173 41.904C156.446 42.4444 156.821 42.8711 157.296 43.184C157.771 43.4969 158.318 43.6533 158.937 43.6533Z"
            fill="white"
          />
          <path
            d="M172.846 46C171.622 46 170.556 45.7511 169.649 45.2533C168.756 44.7413 168.065 44.0516 167.575 43.184C167.1 42.3164 166.863 41.3351 166.863 40.24C166.863 38.96 167.122 37.872 167.64 36.976C168.173 36.0658 168.864 35.3689 169.714 34.8853C170.563 34.4018 171.463 34.16 172.414 34.16C173.148 34.16 173.839 34.3093 174.487 34.608C175.149 34.9067 175.733 35.3191 176.237 35.8453C176.741 36.3573 177.136 36.9547 177.424 37.6373C177.727 38.32 177.878 39.0453 177.878 39.8133C177.864 40.1547 177.727 40.432 177.468 40.6453C177.208 40.8587 176.906 40.9653 176.561 40.9653H168.31L167.662 38.832H175.589L175.113 39.2587V38.6827C175.085 38.2702 174.933 37.9004 174.66 37.5733C174.401 37.2462 174.069 36.9902 173.666 36.8053C173.278 36.6062 172.86 36.5067 172.414 36.5067C171.982 36.5067 171.578 36.5636 171.204 36.6773C170.83 36.7911 170.506 36.9831 170.232 37.2533C169.958 37.5236 169.742 37.8862 169.584 38.3413C169.426 38.7964 169.347 39.3724 169.347 40.0693C169.347 40.8373 169.505 41.4916 169.822 42.032C170.153 42.5582 170.57 42.9636 171.074 43.248C171.593 43.5182 172.14 43.6533 172.716 43.6533C173.249 43.6533 173.673 43.6107 173.99 43.5253C174.307 43.44 174.559 43.3404 174.746 43.2267C174.948 43.0987 175.128 42.992 175.286 42.9067C175.545 42.7787 175.79 42.7147 176.021 42.7147C176.337 42.7147 176.597 42.8213 176.798 43.0347C177.014 43.248 177.122 43.4969 177.122 43.7813C177.122 44.1653 176.921 44.5138 176.517 44.8267C176.143 45.1396 175.617 45.4169 174.941 45.6587C174.264 45.8862 173.565 46 172.846 46Z"
            fill="white"
          />
          <path
            d="M181.438 45.7867C181.064 45.7867 180.755 45.6658 180.51 45.424C180.265 45.168 180.143 44.8551 180.143 44.4853V35.6747C180.143 35.3049 180.265 34.9991 180.51 34.7573C180.755 34.5013 181.064 34.3733 181.438 34.3733C181.813 34.3733 182.122 34.5013 182.367 34.7573C182.612 34.9991 182.734 35.3049 182.734 35.6747V37.68L182.583 36.2507C182.742 35.9093 182.943 35.6107 183.188 35.3547C183.447 35.0844 183.735 34.864 184.052 34.6933C184.369 34.5084 184.707 34.3733 185.067 34.288C185.427 34.2027 185.787 34.16 186.147 34.16C186.579 34.16 186.939 34.2809 187.227 34.5227C187.529 34.7644 187.681 35.0489 187.681 35.376C187.681 35.8453 187.558 36.1867 187.313 36.4C187.069 36.5991 186.802 36.6987 186.514 36.6987C186.241 36.6987 185.989 36.6489 185.758 36.5493C185.542 36.4498 185.29 36.4 185.002 36.4C184.743 36.4 184.477 36.464 184.203 36.592C183.944 36.7058 183.699 36.8907 183.469 37.1467C183.253 37.4027 183.073 37.7227 182.929 38.1067C182.799 38.4764 182.734 38.9173 182.734 39.4293V44.4853C182.734 44.8551 182.612 45.168 182.367 45.424C182.122 45.6658 181.813 45.7867 181.438 45.7867Z"
            fill="white"
          />
          <path
            d="M188.079 45.7653C187.662 45.7653 187.338 45.6587 187.107 45.4453C186.891 45.2178 186.783 44.8978 186.783 44.4853V44.1227C186.783 43.7102 186.891 43.3973 187.107 43.184C187.338 42.9564 187.662 42.8427 188.079 42.8427H188.36C188.777 42.8427 189.094 42.9564 189.31 43.184C189.541 43.3973 189.656 43.7102 189.656 44.1227V44.4853C189.656 44.8978 189.541 45.2178 189.31 45.4453C189.094 45.6587 188.777 45.7653 188.36 45.7653H188.079Z"
            fill="white"
          />
          <path
            d="M201.773 34.16C202.148 34.16 202.457 34.2809 202.702 34.5227C202.947 34.7644 203.069 35.0773 203.069 35.4613V44.4853C203.069 44.8551 202.947 45.168 202.702 45.424C202.457 45.6658 202.148 45.7867 201.773 45.7867C201.399 45.7867 201.089 45.6658 200.844 45.424C200.6 45.168 200.477 44.8551 200.477 44.4853V43.44L200.952 43.632C200.952 43.8169 200.852 44.0444 200.65 44.3147C200.449 44.5707 200.175 44.8267 199.829 45.0827C199.484 45.3387 199.073 45.5591 198.598 45.744C198.137 45.9147 197.633 46 197.086 46C196.093 46 195.193 45.7511 194.386 45.2533C193.58 44.7413 192.939 44.0444 192.464 43.1627C192.003 42.2667 191.773 41.2427 191.773 40.0907C191.773 38.9244 192.003 37.9004 192.464 37.0187C192.939 36.1227 193.573 35.4258 194.365 34.928C195.157 34.416 196.035 34.16 197 34.16C197.619 34.16 198.188 34.2524 198.706 34.4373C199.225 34.6222 199.671 34.8569 200.045 35.1413C200.434 35.4258 200.729 35.7173 200.931 36.016C201.147 36.3004 201.255 36.5422 201.255 36.7413L200.477 37.0187V35.4613C200.477 35.0916 200.6 34.7858 200.844 34.544C201.089 34.288 201.399 34.16 201.773 34.16ZM197.41 43.6533C198.044 43.6533 198.598 43.4969 199.073 43.184C199.549 42.8711 199.916 42.4444 200.175 41.904C200.449 41.3636 200.585 40.7591 200.585 40.0907C200.585 39.408 200.449 38.7964 200.175 38.256C199.916 37.7156 199.549 37.2889 199.073 36.976C198.598 36.6631 198.044 36.5067 197.41 36.5067C196.791 36.5067 196.244 36.6631 195.769 36.976C195.294 37.2889 194.919 37.7156 194.646 38.256C194.386 38.7964 194.257 39.408 194.257 40.0907C194.257 40.7591 194.386 41.3636 194.646 41.904C194.919 42.4444 195.294 42.8711 195.769 43.184C196.244 43.4969 196.791 43.6533 197.41 43.6533Z"
            fill="white"
          />
          <path
            d="M208.316 44.4853C208.316 44.8551 208.194 45.168 207.949 45.424C207.704 45.6658 207.395 45.7867 207.02 45.7867C206.646 45.7867 206.336 45.6658 206.091 45.424C205.847 45.168 205.724 44.8551 205.724 44.4853V35.6747C205.724 35.3049 205.847 34.9991 206.091 34.7573C206.336 34.5013 206.646 34.3733 207.02 34.3733C207.395 34.3733 207.704 34.5013 207.949 34.7573C208.194 34.9991 208.316 35.3049 208.316 35.6747V44.4853ZM206.999 32.9867C206.509 32.9867 206.163 32.9084 205.962 32.752C205.76 32.5956 205.66 32.3182 205.66 31.92V31.5147C205.66 31.1022 205.768 30.8249 205.983 30.6827C206.214 30.5262 206.559 30.448 207.02 30.448C207.524 30.448 207.877 30.5262 208.079 30.6827C208.28 30.8391 208.381 31.1164 208.381 31.5147V31.92C208.381 32.3324 208.273 32.6169 208.057 32.7733C207.841 32.9156 207.488 32.9867 206.999 32.9867Z"
            fill="white"
          />
        </svg>