<svg width="44" height="44" viewBox="0 0 44 44" fill="none" xmlns="http://www.w3.org/2000/svg">
<rect width="44" height="44" rx="8" fill="#226CF5"/>
<rect x="0.5" y="0.5" width="43" height="43" rx="7.5" stroke="#FAFBFC" stroke-opacity="0.24"/>
<circle cx="22" cy="30.7968" r="2" fill="white"/>
<path d="M23.1953 31.7968C22.4143 32.5779 21.4764 32.5779 20.6953 31.7968" stroke="#3B3B3B" stroke-linecap="round"/>
<path d="M22 14.5468C25.1179 14.5468 27.7934 16.7675 28.3682 19.832L29.8828 27.9062C29.9939 28.4986 29.5392 29.0466 28.9365 29.0468H15.0635C14.4608 29.0466 14.0061 28.4986 14.1172 27.9062L15.6318 19.832C16.2066 16.7675 18.8821 14.5468 22 14.5468Z" fill="white" stroke="#3B3B3B" stroke-width="1.5" stroke-linejoin="round"/>
<path d="M16.1953 12.2968C15.0286 13.2968 13.1953 15.2968 12.6953 18.2968" stroke="#71C2FF" stroke-linecap="round"/>
<path d="M27.6953 12.2968C28.862 13.2968 30.6953 15.2968 31.1953 18.2968" stroke="#71C2FF" stroke-linecap="round"/>
<rect x="22" y="6" width="16" height="16" rx="8" fill="#FF1A2F"/>
<path d="M27.1843 18V16.884C27.6963 16.46 28.1923 16.04 28.6723 15.624C29.1603 15.208 29.5923 14.796 29.9683 14.388C30.3523 13.98 30.6563 13.584 30.8803 13.2C31.1123 12.808 31.2283 12.428 31.2283 12.06C31.2283 11.716 31.1323 11.412 30.9403 11.148C30.7563 10.884 30.4483 10.752 30.0163 10.752C29.5763 10.752 29.2443 10.896 29.0203 11.184C28.7963 11.472 28.6843 11.82 28.6843 12.228H27.1963C27.2123 11.612 27.3483 11.1 27.6043 10.692C27.8603 10.276 28.2003 9.968 28.6243 9.768C29.0483 9.56 29.5243 9.456 30.0523 9.456C30.9083 9.456 31.5723 9.692 32.0443 10.164C32.5243 10.628 32.7643 11.232 32.7643 11.976C32.7643 12.44 32.6563 12.892 32.4403 13.332C32.2323 13.772 31.9563 14.196 31.6123 14.604C31.2683 15.012 30.8963 15.396 30.4963 15.756C30.0963 16.108 29.7083 16.436 29.3323 16.74H32.9683V18H27.1843Z" fill="white"/>
</svg>
