<svg width="21" height="21" viewBox="0 0 21 21" fill="none" xmlns="http://www.w3.org/2000/svg">
<rect opacity="0.6" x="3.13965" y="1.61957" width="17.3913" height="19.1304" rx="2" fill="#226CF5"/>
<path d="M16.9222 0.75H3.26914C2.71686 0.75 2.26914 1.19772 2.26914 1.75V7.07043C2.26914 8.65005 2.11319 10.2258 1.80356 11.7748L0.770019 16.9453C0.646333 17.5641 1.11962 18.1413 1.75062 18.1413H15.3632C15.8399 18.1413 16.2503 17.8048 16.3438 17.3374L17.4561 11.7761C17.7661 10.2263 17.9222 8.64959 17.9222 7.06904V6.40217V3.79348V2.27174V1.75C17.9222 1.19771 17.4745 0.75 16.9222 0.75Z" fill="white"/>
<path d="M17.9222 0.75H3.26914C2.71686 0.75 2.26914 1.19772 2.26914 1.75V7.07043C2.26914 8.65005 2.11319 10.2258 1.80356 11.7748L0.770019 16.9453C0.646333 17.5641 1.11962 18.1413 1.75062 18.1413H15.3632C15.8399 18.1413 16.2503 17.8049 16.3438 17.3374L17.4561 11.7761C17.7661 10.2263 17.9222 8.64959 17.9222 7.06904V6.40217M17.9222 3.79348V2.27174" stroke="#3B3B3B" stroke-width="1.5" stroke-linecap="round" stroke-linejoin="round"/>
<line x1="6.49835" y1="7.82611" x2="12.8244" y2="7.82611" stroke="#3B3B3B" stroke-width="1.5" stroke-linecap="round"/>
<line x1="6.49835" y1="10.4348" x2="12.8244" y2="10.4348" stroke="#3B3B3B" stroke-width="1.5" stroke-linecap="round"/>
<line x1="6.49835" y1="13.0435" x2="12.8244" y2="13.0435" stroke="#3B3B3B" stroke-width="1.5" stroke-linecap="round"/>
</svg>
